<svg xmlns="http://www.w3.org/2000/svg" viewBox="0 0 4800 900"><defs><style>.cls-1{fill:#f7ae1a;}.cls-2,.cls-3,.cls-4,.cls-5,.cls-6{fill:#f1ac2d;}.cls-2{opacity:0.97;}.cls-3{opacity:0.92;}.cls-4{opacity:0.87;}.cls-5{opacity:0.82;}.cls-6{opacity:0.75;}.cls-7{fill:#c15d28;opacity:0.28;}.cls-8{fill:#a94724;opacity:0.2;}.cls-9{fill:#b85132;}.cls-10{fill:#cd6131;}.cls-11,.cls-12,.cls-13{fill:#f1f2f2;}.cls-11{opacity:0.05;}.cls-12{opacity:0.15;}.cls-13{opacity:0.25;}.cls-14{fill:#a3762d;}.cls-15{fill:#ad7b32;}.cls-16{fill:#b57e36;}</style></defs><title>backgroundMars</title><g id="Background_Gradient" data-name="Background Gradient"><rect class="cls-1" x="1" width="4799" height="120.11"/><rect class="cls-2" x="1" y="120.11" width="4799" height="120.11"/><rect class="cls-3" x="1" y="240.21" width="4799" height="120.11"/><rect class="cls-4" x="1" y="360.32" width="4799" height="120.11"/><rect class="cls-5" x="1" y="480.43" width="4799" height="120.11"/><rect class="cls-6" x="1" y="600.53" width="4799" height="120.11"/></g><g id="Mountans_3" data-name="Mountans 3"><polygon class="cls-7" points="1055.74 705.09 1055.74 696.19 1028.83 696.19 1028.83 677.94 1019.73 677.94 1019.73 668.81 993.41 668.81 993.41 659.91 975.71 659.91 975.71 642.76 958.19 642.76 958.19 634.08 949.49 634.08 949.49 625.62 940.39 625.62 940.39 608.25 913.8 608.25 913.8 599.57 904.38 599.57 904.38 591.1 895.67 591.1 895.67 583.38 886.42 583.38 886.42 574.7 870.51 574.7 870.51 569.02 864.87 569.02 864.87 563.49 859.66 563.49 859.66 558.45 851.87 558.45 851.87 549.62 846.16 549.62 846.16 543.63 825.91 543.63 825.91 537.53 795.67 537.53 795.67 543.63 775.42 543.63 775.42 549.62 772.18 549.62 772.18 558.45 769.21 558.45 769.21 563.49 763.61 563.49 763.61 569.02 758.3 569.02 758.3 574.7 753.01 574.7 753.01 583.38 744.53 583.38 744.53 591.1 735.17 591.1 735.17 599.57 726.3 599.57 726.3 608.25 717.46 608.25 717.46 625.62 691.37 625.62 691.37 642.76 682.23 642.76 682.23 659.91 668.14 659.91 668.14 668.81 647.22 668.81 647.22 677.94 639.98 677.94 639.98 696.19 618.58 696.19 618.58 705.09 597.29 705.09 597.29 722.9 731.64 722.9 731.64 722.9 812.96 722.9 859.26 722.9 1082.52 722.9 1082.52 705.09 1055.74 705.09"/><polygon class="cls-7" points="234.58 706.68 234.58 699.98 213.18 699.98 213.18 686.25 205.94 686.25 205.94 679.38 185.01 679.38 185.01 672.68 170.93 672.68 170.93 659.77 161.79 659.77 161.79 646.87 135.7 646.87 135.7 633.79 126.86 633.79 126.86 627.26 117.99 627.26 117.99 620.89 108.63 620.89 108.63 615.08 100.15 615.08 100.15 608.54 94.86 608.54 94.86 604.27 89.55 604.27 89.55 600.11 83.95 600.11 83.95 596.31 80.98 596.31 80.98 589.67 77.74 589.67 77.74 585.16 57.49 585.16 57.49 580.57 27.25 580.57 27.25 585.16 7 585.16 7 589.67 1.29 589.67 1.29 596.31 1 596.31 1 720.08 40.2 720.08 121.52 720.08 121.52 720.08 255.87 720.08 255.87 706.68 234.58 706.68"/><polygon class="cls-8" points="1957.27 738.34 1957.27 719.82 1944.76 719.82 1944.76 719.54 1944.76 701.38 1944.76 701.3 1933.44 701.3 1933.44 701.06 1933.44 685.49 1933.44 663.05 1920.92 663.05 1920.92 662.73 1920.92 643.72 1873.12 643.72 1873.12 624.72 1860.19 624.72 1860.19 610.2 1824.38 610.2 1824.38 595.69 1800.13 595.69 1800.13 581.18 1775.47 581.18 1775.47 566.67 1763.81 566.67 1763.81 552.15 1751.69 552.15 1751.69 537.64 1738.48 537.64 1738.48 523.13 1678.9 523.13 1678.9 537.64 1653.82 537.64 1653.82 552.15 1642.2 552.15 1642.2 566.67 1617.11 566.67 1617.11 581.18 1600.44 581.18 1583.76 581.18 1583.76 566.67 1558.67 566.67 1558.67 552.15 1547.05 552.15 1547.05 537.64 1521.97 537.64 1521.97 523.13 1462.39 523.13 1462.39 537.64 1449.18 537.64 1449.18 552.15 1437.06 552.15 1437.06 566.67 1425.4 566.67 1425.4 581.18 1400.74 581.18 1400.74 595.69 1376.49 595.69 1376.49 610.2 1340.69 610.2 1340.69 624.72 1327.75 624.72 1327.75 643.72 1279.95 643.72 1279.95 662.73 1279.95 663.05 1267.44 663.05 1267.44 685.49 1267.44 701.06 1267.44 701.3 1256.12 701.3 1256.12 701.38 1256.12 719.54 1256.12 719.82 1243.61 719.82 1243.61 738.34 1219.84 738.34 1219.84 757.94 1243.61 757.94 1256.12 757.94 1267.44 757.94 1279.95 757.94 1600.44 757.94 1920.92 757.94 1933.44 757.94 1944.76 757.94 1957.27 757.94 1981.04 757.94 1981.04 738.34 1957.27 738.34"/><polygon class="cls-7" points="2439.49 701.62 2439.49 692.72 2412.58 692.72 2412.58 674.47 2403.48 674.47 2403.48 665.35 2377.16 665.35 2377.16 656.44 2359.45 656.44 2359.45 639.3 2341.94 639.3 2341.94 630.61 2333.24 630.61 2333.24 622.15 2324.14 622.15 2324.14 604.78 2297.55 604.78 2297.55 596.1 2288.12 596.1 2288.12 587.63 2279.42 587.63 2279.42 579.92 2270.17 579.92 2270.17 571.23 2254.26 571.23 2254.26 565.55 2248.62 565.55 2248.62 560.02 2243.41 560.02 2243.41 554.98 2235.62 554.98 2235.62 546.16 2229.91 546.16 2229.91 540.17 2209.66 540.17 2209.66 534.06 2179.42 534.06 2179.42 540.17 2159.17 540.17 2159.17 546.16 2155.93 546.16 2155.93 554.98 2152.96 554.98 2152.96 560.02 2147.36 560.02 2147.36 565.55 2142.05 565.55 2142.05 571.23 2136.76 571.23 2136.76 579.92 2128.28 579.92 2128.28 587.63 2118.92 587.63 2118.92 596.1 2110.05 596.1 2110.05 604.78 2101.21 604.78 2101.21 622.15 2075.12 622.15 2075.12 639.3 2065.98 639.3 2065.98 656.44 2051.89 656.44 2051.89 665.35 2030.97 665.35 2030.97 674.47 2023.73 674.47 2023.73 692.72 2002.33 692.72 2002.33 701.62 1981.04 701.62 1981.04 719.43 2115.39 719.43 2115.39 719.43 2196.71 719.43 2243.01 719.43 2466.27 719.43 2466.27 701.62 2439.49 701.62"/><polygon class="cls-8" points="4445.21 714.22 4445.21 680.11 4422.17 680.11 4422.17 679.59 4422.17 646.14 4422.17 645.99 4401.31 645.99 4401.31 645.56 4401.31 616.87 4401.31 575.53 4378.27 575.53 4378.27 574.95 4378.27 539.93 4290.22 539.93 4290.22 504.93 4266.39 504.93 4266.39 478.19 4200.44 478.19 4200.44 451.46 4155.76 451.46 4155.76 424.73 4110.34 424.73 4110.34 397.99 4088.86 397.99 4088.86 371.26 4066.54 371.26 4066.54 344.53 4042.2 344.53 4042.2 317.79 3932.46 317.79 3932.46 344.53 3886.25 344.53 3886.25 371.26 3864.85 371.26 3864.85 397.99 3818.64 397.99 3818.64 424.73 3787.92 424.73 3757.2 424.73 3757.2 397.99 3710.99 397.99 3710.99 371.26 3689.58 371.26 3689.58 344.53 3643.38 344.53 3643.38 317.79 3533.64 317.79 3533.64 344.53 3509.3 344.53 3509.3 371.26 3486.97 371.26 3486.97 397.99 3465.5 397.99 3465.5 424.73 3420.08 424.73 3420.08 451.46 3375.4 451.46 3375.4 478.19 3309.45 478.19 3309.45 504.93 3285.62 504.93 3285.62 539.93 3197.57 539.93 3197.57 574.95 3197.57 575.53 3174.52 575.53 3174.52 616.87 3174.52 645.56 3174.52 645.99 3153.67 645.99 3153.67 646.14 3153.67 679.59 3153.67 680.11 3130.62 680.11 3130.62 714.22 3086.84 714.22 3086.84 750.33 3130.62 750.33 3153.67 750.33 3174.52 750.33 3197.57 750.33 3787.92 750.33 4378.27 750.33 4401.31 750.33 4422.17 750.33 4445.21 750.33 4489 750.33 4489 714.22 4445.21 714.22"/><polygon class="cls-7" points="2513.58 853.68 2513.58 846.98 2492.18 846.98 2492.18 833.25 2484.94 833.25 2484.94 826.38 2464.01 826.38 2464.01 819.68 2449.93 819.68 2449.93 806.77 2440.79 806.77 2440.79 793.87 2414.7 793.87 2414.7 780.79 2405.86 780.79 2405.86 774.26 2396.99 774.26 2396.99 767.89 2387.63 767.89 2387.63 762.08 2379.15 762.08 2379.15 755.54 2373.86 755.54 2373.86 751.27 2368.55 751.27 2368.55 747.11 2362.95 747.11 2362.95 743.31 2359.98 743.31 2359.98 736.67 2356.74 736.67 2356.74 732.16 2336.49 732.16 2336.49 727.57 2306.25 727.57 2306.25 732.16 2286 732.16 2286 736.67 2280.29 736.67 2280.29 743.31 2280 743.31 2280 867.08 2319.2 867.08 2400.52 867.08 2400.52 867.08 2534.87 867.08 2534.87 853.68 2513.58 853.68"/><polygon class="cls-7" points="4566.42 706.68 4566.42 699.98 4587.82 699.98 4587.82 686.25 4595.06 686.25 4595.06 679.38 4615.98 679.38 4615.98 672.68 4630.07 672.68 4630.07 659.77 4639.21 659.77 4639.21 646.87 4665.3 646.87 4665.3 633.79 4674.14 633.79 4674.14 627.26 4683.01 627.26 4683.01 620.89 4692.37 620.89 4692.37 615.08 4700.85 615.08 4700.85 608.54 4706.14 608.54 4706.14 604.27 4711.45 604.27 4711.45 600.11 4717.05 600.11 4717.05 596.31 4720.02 596.31 4720.02 589.67 4723.26 589.67 4723.26 585.16 4743.51 585.16 4743.51 580.57 4773.75 580.57 4773.75 585.16 4794 585.16 4794 589.67 4799.71 589.67 4799.71 596.31 4800 596.31 4800 720.08 4760.8 720.08 4679.48 720.08 4679.48 720.08 4545.13 720.08 4545.13 706.68 4566.42 706.68"/></g><g id="Mountain_2" data-name="Mountain 2"><polygon class="cls-9" points="888.32 730.26 888.32 711.62 868.4 711.62 868.4 711.34 868.4 693.06 868.4 692.98 850.38 692.98 850.38 692.74 850.38 677.07 850.38 654.47 830.47 654.47 830.47 654.15 830.47 635.02 754.37 635.02 754.37 615.89 733.78 615.89 733.78 601.28 676.78 601.28 676.78 586.67 638.17 586.67 638.17 572.06 598.92 572.06 598.92 557.45 580.36 557.45 580.36 542.84 561.07 542.84 561.07 528.23 540.03 528.23 540.03 513.62 445.19 513.62 445.19 528.23 405.26 528.23 405.26 542.84 386.76 542.84 386.76 557.45 346.83 557.45 346.83 572.06 251.43 572.06 251.43 586.67 193.7 586.67 193.7 601.28 155.09 601.28 155.09 615.89 136.01 615.89 136.01 635.02 98.07 635.02 98.07 654.15 98.07 654.47 58.24 654.47 58.24 677.07 58.24 692.74 58.24 692.98 1 692.98 1 750 58.24 750 98.07 750 830.47 750 850.38 750 868.4 750 888.32 750 926.16 750 926.16 730.26 888.32 730.26"/><polygon class="cls-9" points="3417.63 686.26 3417.63 669.35 3366.52 669.35 3366.52 634.68 3349.23 634.68 3349.23 617.35 3299.24 617.35 3299.24 600.44 3265.61 600.44 3265.61 567.87 3232.35 567.87 3232.35 551.38 3215.81 551.38 3215.81 535.3 3198.52 535.3 3198.52 502.31 3148.03 502.31 3148.03 485.82 3130.12 485.82 3130.12 469.75 3113.58 469.75 3113.58 455.09 3096.01 455.09 3096.01 438.58 3065.8 438.58 3065.8 427.81 3055.08 427.81 3055.08 417.3 3045.18 417.3 3045.18 407.72 3030.39 407.72 3030.39 390.96 3019.55 390.96 3019.55 379.58 2981.08 379.58 2981.08 367.99 2923.64 367.99 2923.64 379.58 2885.17 379.58 2885.17 390.96 2879.02 390.96 2879.02 407.72 2873.39 407.72 2873.39 417.3 2862.74 417.3 2862.74 427.81 2852.66 427.81 2852.66 438.58 2842.61 438.58 2842.61 455.09 2826.51 455.09 2826.51 469.75 2808.73 469.75 2808.73 485.82 2791.88 485.82 2791.88 502.31 2775.09 502.31 2775.09 535.3 2725.53 535.3 2725.53 567.87 2708.17 567.87 2708.17 600.44 2681.42 600.44 2681.42 617.35 2641.67 617.35 2641.67 634.68 2627.92 634.68 2627.92 669.35 2587.28 669.35 2587.28 686.26 2546.83 686.26 2546.83 720.08 2802.02 720.08 2802.02 720.08 2956.49 720.08 3044.43 720.08 3468.49 720.08 3468.49 686.26 3417.63 686.26"/><polygon class="cls-9" points="2286.88 827.5 2286.88 811.41 2271.47 811.41 2271.47 811.17 2271.47 795.4 2271.47 795.32 2257.53 795.32 2257.53 795.12 2257.53 781.59 2257.53 762.09 2242.12 762.09 2242.12 761.82 2242.12 745.3 2183.25 745.3 2183.25 728.79 2167.32 728.79 2167.32 716.18 2123.23 716.18 2123.23 703.58 2093.36 703.58 2093.36 690.97 2062.99 690.97 2062.99 678.36 2048.63 678.36 2048.63 665.75 2033.71 665.75 2033.71 653.14 2017.43 653.14 2017.43 640.53 1944.07 640.53 1944.07 653.14 1913.18 653.14 1913.18 665.75 1898.87 665.75 1898.87 678.36 1867.97 678.36 1867.97 690.97 1794.17 690.97 1794.17 703.58 1749.51 703.58 1749.51 716.18 1719.64 716.18 1719.64 728.79 1704.88 728.79 1704.88 745.3 1675.53 745.3 1675.53 761.82 1675.53 762.09 1644.72 762.09 1644.72 781.59 1644.72 795.12 1644.72 795.32 1600.44 795.32 1600.44 844.53 1644.72 844.53 1675.53 844.53 2242.12 844.53 2257.53 844.53 2271.47 844.53 2286.88 844.53 2316.15 844.53 2316.15 827.5 2286.88 827.5"/></g><g id="Mountain_1" data-name="Mountain 1"><polygon class="cls-10" points="1557.14 691.29 1557.14 676.89 1513.63 676.89 1513.63 647.39 1498.92 647.39 1498.92 632.64 1456.37 632.64 1456.37 618.24 1427.74 618.24 1427.74 590.52 1399.43 590.52 1399.43 576.48 1385.35 576.48 1385.35 562.79 1370.63 562.79 1370.63 534.72 1327.65 534.72 1327.65 520.67 1312.41 520.67 1312.41 506.99 1298.33 506.99 1298.33 494.51 1283.38 494.51 1283.38 480.46 1257.65 480.46 1257.65 471.29 1248.53 471.29 1248.53 462.35 1240.11 462.35 1240.11 454.19 1227.52 454.19 1227.52 439.93 1218.29 439.93 1218.29 430.24 1185.54 430.24 1185.54 420.37 1136.65 420.37 1136.65 430.24 1103.91 430.24 1103.91 439.93 1098.67 439.93 1098.67 454.19 1093.87 454.19 1093.87 462.35 1084.81 462.35 1084.81 471.29 1076.23 471.29 1076.23 480.46 1067.68 480.46 1067.68 494.51 1053.97 494.51 1053.97 506.99 1038.84 506.99 1038.84 520.67 1024.49 520.67 1024.49 534.72 1010.2 534.72 1010.2 562.79 968.01 562.79 968.01 590.52 953.23 590.52 953.23 618.24 930.47 618.24 930.47 632.64 896.63 632.64 896.63 647.39 884.93 647.39 884.93 676.89 850.33 676.89 850.33 691.29 815.9 691.29 815.9 720.08 1033.13 720.08 1033.13 720.08 1164.61 720.08 1239.47 720.08 1600.44 720.08 1600.44 691.29 1557.14 691.29"/><polygon class="cls-10" points="3331.29 781.27 3331.29 766.91 3260.31 766.91 3260.31 737.47 3236.31 737.47 3236.31 722.75 3166.89 722.75 3166.89 708.38 3120.18 708.38 3120.18 680.72 3074 680.72 3074 666.71 3051.03 666.71 3051.03 653.05 3027.03 653.05 3027.03 625.04 2956.9 625.04 2956.9 611.03 2932.04 611.03 2932.04 597.37 2909.07 597.37 2909.07 584.92 2884.68 584.92 2884.68 570.9 2842.71 570.9 2842.71 561.75 2827.83 561.75 2827.83 552.83 2814.09 552.83 2814.09 544.69 2793.55 544.69 2793.55 530.45 2778.49 530.45 2778.49 520.79 2725.07 520.79 2725.07 510.94 2645.31 510.94 2645.31 520.79 2591.89 520.79 2591.89 530.45 2583.35 530.45 2583.35 544.69 2575.52 544.69 2575.52 552.83 2560.74 552.83 2560.74 561.75 2546.74 561.75 2546.74 570.9 2532.79 570.9 2532.79 584.92 2510.43 584.92 2510.43 597.37 2485.74 597.37 2485.74 611.03 2462.33 611.03 2462.33 625.04 2439.02 625.04 2439.02 653.05 2370.2 653.05 2370.2 680.72 2346.09 680.72 2346.09 708.38 2308.95 708.38 2308.95 722.75 2253.75 722.75 2253.75 737.47 2234.66 737.47 2234.66 766.91 2178.22 766.91 2178.22 781.27 2122.05 781.27 2122.05 810 2476.42 810 2476.42 810 2690.92 810 2813.05 810 3401.92 810 3401.92 781.27 3331.29 781.27"/><polygon class="cls-9" points="3827.11 745.61 3827.11 726.97 3847.03 726.97 3847.03 726.69 3847.03 708.41 3847.03 708.33 3865.05 708.33 3865.05 708.09 3865.05 692.41 3865.05 669.82 3884.97 669.82 3884.97 669.5 3884.97 650.37 3961.06 650.37 3961.06 631.23 3981.66 631.23 3981.66 616.62 4038.65 616.62 4038.65 602.01 4077.26 602.01 4077.26 587.4 4116.52 587.4 4116.52 572.79 4135.08 572.79 4135.08 558.19 4154.37 558.19 4154.37 543.58 4175.41 543.58 4175.41 528.97 4270.24 528.97 4270.24 543.58 4310.18 543.58 4310.18 558.19 4328.68 558.19 4328.68 572.79 4368.61 572.79 4368.61 587.4 4464.01 587.4 4464.01 602.01 4521.74 602.01 4521.74 616.62 4560.35 616.62 4560.35 631.23 4579.43 631.23 4579.43 650.37 4617.36 650.37 4617.36 669.5 4617.36 669.82 4657.19 669.82 4657.19 692.41 4657.19 708.09 4657.19 708.33 4714.44 708.33 4714.44 765.35 4657.19 765.35 4617.36 765.35 3884.97 765.35 3865.05 765.35 3847.03 765.35 3827.11 765.35 3789.27 765.35 3789.27 745.61 3827.11 745.61"/><polygon class="cls-10" points="3158.29 706.64 3158.29 692.24 3201.8 692.24 3201.8 662.74 3216.52 662.74 3216.52 647.99 3259.07 647.99 3259.07 633.59 3287.7 633.59 3287.7 605.87 3316.01 605.87 3316.01 591.83 3330.09 591.83 3330.09 578.14 3344.8 578.14 3344.8 550.06 3387.79 550.06 3387.79 536.02 3403.03 536.02 3403.03 522.34 3417.1 522.34 3417.1 509.86 3432.06 509.86 3432.06 495.81 3457.78 495.81 3457.78 486.64 3466.9 486.64 3466.9 477.7 3475.33 477.7 3475.33 469.54 3487.92 469.54 3487.92 455.27 3497.15 455.27 3497.15 445.59 3529.9 445.59 3529.9 435.72 3578.78 435.72 3578.78 445.59 3611.53 445.59 3611.53 455.27 3616.77 455.27 3616.77 469.54 3621.57 469.54 3621.57 477.7 3630.62 477.7 3630.62 486.64 3639.21 486.64 3639.21 495.81 3647.76 495.81 3647.76 509.86 3661.47 509.86 3661.47 522.34 3676.6 522.34 3676.6 536.02 3690.95 536.02 3690.95 550.06 3705.24 550.06 3705.24 578.14 3747.42 578.14 3747.42 605.87 3762.2 605.87 3762.2 633.59 3784.97 633.59 3784.97 647.99 3818.81 647.99 3818.81 662.74 3830.51 662.74 3830.51 692.24 3865.11 692.24 3865.11 706.64 3899.53 706.64 3899.53 735.43 3682.31 735.43 3682.31 735.43 3550.83 735.43 3475.97 735.43 3115 735.43 3115 706.64 3158.29 706.64"/></g><g id="_5_Clouds" data-name="5% Clouds"><polygon class="cls-11" points="1487.63 410.61 1487.63 392.29 1449.77 392.29 1449.77 372.6 1392.01 372.6 1392.01 352.9 1121.94 352.9 1121.94 372.6 1063.11 372.6 1063.11 392.29 1005.94 392.29 1005.94 411.99 1063.11 411.99 1063.11 430.31 1101.69 430.31 1101.69 450 1410.56 450 1410.56 430.31 1564.27 430.31 1564.27 410.61 1487.63 410.61"/><polygon class="cls-12" points="1533.22 720 1533.22 705 1504.22 705 1504.22 690 1458.22 690 1458.22 675 1427.97 675 1427.97 660 1338.06 660 1338.06 645 1233.06 645 1233.06 660 1217.97 660 1217.97 675 1248.22 675 1248.22 690 1233.06 690 1233.06 705 1278.79 705 1278.79 720 1308.22 720 1308.22 735 1547.72 735 1547.72 720 1533.22 720"/><polygon class="cls-12" points="2747.49 506.4 2747.49 491.4 2718.49 491.4 2718.49 476.4 2672.49 476.4 2672.49 461.4 2642.24 461.4 2642.24 446.4 2552.33 446.4 2552.33 431.4 2447.33 431.4 2447.33 446.4 2432.24 446.4 2432.24 461.4 2462.49 461.4 2462.49 476.4 2447.33 476.4 2447.33 491.4 2493.05 491.4 2493.05 506.4 2522.49 506.4 2522.49 521.4 2761.99 521.4 2761.99 506.4 2747.49 506.4"/></g><g id="_15_Clouds" data-name="15% Clouds"><polygon class="cls-13" points="1537.5 151.39 1479.97 151.39 1479.97 131.57 1420.77 131.57 1420.77 111.75 1149.01 111.75 1149.01 131.57 1090.89 131.57 1090.89 151.39 1052.79 151.39 1052.79 170.82 975.67 170.82 975.67 190.64 1130.34 190.64 1130.34 210.46 1441.15 210.46 1441.15 190.64 1479.97 190.64 1479.97 171.21 1537.5 171.21 1537.5 151.39"/><polygon class="cls-13" points="364.77 469.52 364.77 454.52 335.77 454.52 335.77 439.52 289.77 439.52 289.77 424.52 259.52 424.52 259.52 409.52 169.61 409.52 169.61 394.52 64.61 394.52 64.61 409.52 49.52 409.52 49.52 424.52 79.77 424.52 79.77 439.52 64.61 439.52 64.61 454.52 110.33 454.52 110.33 469.52 139.77 469.52 139.77 484.52 379.27 484.52 379.27 469.52 364.77 469.52"/><polygon class="cls-13" points="151.32 40.55 151.32 55.38 91.82 55.38 91.82 71.02 46.38 71.02 46.38 85.52 106.32 85.52 106.32 100.02 482.32 100.02 482.32 85.52 527.17 85.52 527.17 71.02 571.32 71.02 571.32 55.38 631.82 55.38 631.82 40.55 151.32 40.55"/><polygon class="cls-13" points="1128.19 534.11 1128.19 515.79 1090.33 515.79 1090.33 496.09 1032.57 496.09 1032.57 476.4 762.51 476.4 762.51 496.09 703.67 496.09 703.67 515.79 646.5 515.79 646.5 535.48 703.67 535.48 703.67 553.8 742.25 553.8 742.25 573.5 1051.12 573.5 1051.12 553.8 1204.83 553.8 1204.83 534.11 1128.19 534.11"/><polygon class="cls-13" points="860.95 312.5 860.95 294.19 823.09 294.19 823.09 274.49 765.33 274.49 765.33 254.79 495.27 254.79 495.27 274.49 436.44 274.49 436.44 294.19 379.27 294.19 379.27 313.88 436.44 313.88 436.44 332.2 475.01 332.2 475.01 351.89 783.88 351.89 783.88 332.2 937.59 332.2 937.59 312.5 860.95 312.5"/><polygon class="cls-13" points="611.35 666.39 553.82 666.39 553.82 646.57 494.62 646.57 494.62 626.75 222.86 626.75 222.86 646.57 164.74 646.57 164.74 666.39 126.64 666.39 126.64 685.82 49.52 685.82 49.52 705.64 204.19 705.64 204.19 725.46 515 725.46 515 705.64 553.82 705.64 553.82 686.21 611.35 686.21 611.35 666.39"/><polygon class="cls-12" points="3271.04 726.74 3271.04 711.74 3242.04 711.74 3242.04 696.74 3196.04 696.74 3196.04 681.74 3165.79 681.74 3165.79 666.74 3075.89 666.74 3075.89 651.74 2970.89 651.74 2970.89 666.74 2955.79 666.74 2955.79 681.74 2986.04 681.74 2986.04 696.74 2970.89 696.74 2970.89 711.74 3016.61 711.74 3016.61 726.74 3046.04 726.74 3046.04 741.74 3285.54 741.74 3285.54 726.74 3271.04 726.74"/><polygon class="cls-13" points="3288.58 229.06 3231.05 229.06 3231.05 209.24 3171.85 209.24 3171.85 189.42 2900.09 189.42 2900.09 209.24 2841.97 209.24 2841.97 229.06 2803.87 229.06 2803.87 248.49 2726.75 248.49 2726.75 268.31 2881.42 268.31 2881.42 288.13 3192.23 288.13 3192.23 268.31 3231.05 268.31 3231.05 248.87 3288.58 248.87 3288.58 229.06"/><polygon class="cls-13" points="1714.64 530.43 1714.64 515.43 1685.64 515.43 1685.64 500.43 1639.64 500.43 1639.64 485.43 1609.39 485.43 1609.39 470.43 1519.48 470.43 1519.48 455.43 1414.48 455.43 1414.48 470.43 1399.39 470.43 1399.39 485.43 1429.64 485.43 1429.64 500.43 1414.48 500.43 1414.48 515.43 1460.21 515.43 1460.21 530.43 1489.64 530.43 1489.64 545.43 1729.14 545.43 1729.14 530.43 1714.64 530.43"/><polygon class="cls-13" points="2010.09 27.44 2010.09 42.27 1950.59 42.27 1950.59 57.91 1905.14 57.91 1905.14 72.42 1965.09 72.42 1965.09 86.92 2341.09 86.92 2341.09 72.42 2385.93 72.42 2385.93 57.91 2430.09 57.91 2430.09 42.27 2490.59 42.27 2490.59 27.44 2010.09 27.44"/><polygon class="cls-13" points="3448.93 607.13 3448.93 588.82 3411.06 588.82 3411.06 569.12 3353.3 569.12 3353.3 549.43 3083.24 549.43 3083.24 569.12 3024.41 569.12 3024.41 588.82 2967.24 588.82 2967.24 608.51 3024.41 608.51 3024.41 626.83 3062.99 626.83 3062.99 646.52 3371.86 646.52 3371.86 626.83 3525.57 626.83 3525.57 607.13 3448.93 607.13"/><polygon class="cls-13" points="2246.89 361.28 2246.89 342.97 2209.03 342.97 2209.03 323.27 2151.27 323.27 2151.27 303.58 1881.21 303.58 1881.21 323.27 1822.37 323.27 1822.37 342.97 1765.2 342.97 1765.2 362.66 1822.37 362.66 1822.37 380.98 1860.95 380.98 1860.95 400.68 2169.82 400.68 2169.82 380.98 2323.53 380.98 2323.53 361.28 2246.89 361.28"/><polygon class="cls-13" points="2349.17 673.13 2291.64 673.13 2291.64 653.31 2232.44 653.31 2232.44 633.49 1960.68 633.49 1960.68 653.31 1902.56 653.31 1902.56 673.13 1864.46 673.13 1864.46 692.56 1787.34 692.56 1787.34 712.38 1942.02 712.38 1942.02 732.2 2252.82 732.2 2252.82 712.38 2291.64 712.38 2291.64 692.95 2349.17 692.95 2349.17 673.13"/><polygon class="cls-13" points="4152.84 102.03 4095.31 102.03 4095.31 82.21 4036.1 82.21 4036.1 62.39 3764.35 62.39 3764.35 82.21 3706.22 82.21 3706.22 102.03 3668.12 102.03 3668.12 121.46 3591 121.46 3591 141.28 3745.68 141.28 3745.68 161.1 4056.49 161.1 4056.49 141.28 4095.31 141.28 4095.31 121.85 4152.84 121.85 4152.84 102.03"/><polygon class="cls-13" points="4691.52 485.56 4691.52 467.24 4653.66 467.24 4653.66 447.54 4595.9 447.54 4595.9 427.85 4325.84 427.85 4325.84 447.54 4267.01 447.54 4267.01 467.24 4209.84 467.24 4209.84 486.93 4267.01 486.93 4267.01 505.25 4305.58 505.25 4305.58 524.95 4614.45 524.95 4614.45 505.25 4768.16 505.25 4768.16 485.56 4691.52 485.56"/></g><g id="Base_Floor" data-name="Base Floor"><rect class="cls-14" x="1" y="720" width="4799" height="30"/><rect class="cls-15" x="1" y="750" width="4799" height="30"/><rect class="cls-16" x="1" y="780" width="4799" height="30"/><rect class="cls-16" x="1" y="810" width="4799" height="30"/><rect class="cls-15" x="1" y="840" width="4799" height="30"/><rect class="cls-14" x="1" y="870" width="4799" height="30"/></g></svg>